<?xml version="1.0" encoding="UTF-8" standalone="no"?>
<!DOCTYPE svg PUBLIC "-//W3C//DTD SVG 1.1//EN" "http://www.w3.org/Graphics/SVG/1.1/DTD/svg11.dtd">
<svg width="100%" height="100%" viewBox="0 0 40 40" version="1.1" xmlns="http://www.w3.org/2000/svg" xmlns:xlink="http://www.w3.org/1999/xlink" xml:space="preserve" xmlns:serif="http://www.serif.com/" style="fill-rule:evenodd;clip-rule:evenodd;stroke-linejoin:round;stroke-miterlimit:2;">
    <rect id="Artboard1" x="0" y="0" width="40" height="40" style="fill:none;"/>
    <g id="Artboard11" serif:id="Artboard1">
        <circle cx="20" cy="20" r="20" style="fill:rgb(0,164,255);"/>
        <g transform="matrix(1,0,0,1,20.9254,17.9032)">
            <g transform="matrix(1,0,0,1,-10,-10)">
                <g id="linkedin-1" serif:id="linkedin 1">
                    <path id="Vector" d="M19.995,20L19.995,19.999L20,19.999L20,12.664C20,9.076 19.228,6.312 15.033,6.312C13.016,6.312 11.663,7.418 11.11,8.468L11.052,8.468L11.052,6.647L7.074,6.647L7.074,19.999L11.216,19.999L11.216,13.387C11.216,11.647 11.546,9.963 13.702,9.963C15.826,9.963 15.858,11.95 15.858,13.499L15.858,20L19.995,20Z" style="fill:white;fill-rule:nonzero;"/>
                    <rect id="Vector_2" x="0.33" y="6.647" width="4.147" height="13.353" style="fill:white;fill-rule:nonzero;"/>
                    <path id="Vector_3" d="M2.402,0C1.076,0 0,1.076 0,2.402C0,3.728 1.076,4.826 2.402,4.826C3.728,4.826 4.803,3.728 4.803,2.402C4.803,1.076 3.727,0 2.402,0Z" style="fill:white;fill-rule:nonzero;"/>
                </g>
            </g>
        </g>
    </g>
</svg>
